<svg width="66" height="21" viewBox="0 0 66 21" fill="none" xmlns="http://www.w3.org/2000/svg">
<path d="M2.73595 19.92H-4.72665e-05L6.95995 -2.86102e-06L13.896 19.92H11.16L10.056 16.752H3.86395L2.73595 19.92ZM6.95995 7.872L4.75195 14.136H9.14395L6.95995 7.872ZM20.0951 19.464V19.92H17.5031V0.719998H20.0951V8.832C20.8631 8.376 21.7751 8.136 22.7831 8.136C25.8551 8.136 28.0391 10.44 28.0391 14.28C28.0391 17.88 25.8551 20.16 22.7831 20.16C21.7751 20.16 20.8631 19.92 20.0951 19.464ZM22.7831 10.728C21.0311 10.728 20.0951 12.096 20.0951 14.28C20.0951 16.2 21.0311 17.568 22.7831 17.568C24.5111 17.568 25.4471 16.2 25.4471 14.28C25.4471 12.096 24.5111 10.728 22.7831 10.728ZM36.9112 20.16C33.8152 20.16 31.6312 17.88 31.6312 14.28C31.6312 10.44 33.8152 8.136 36.9112 8.136C39.9832 8.136 42.1672 10.44 42.1672 14.28C42.1672 17.88 39.9832 20.16 36.9112 20.16ZM36.9112 10.728C35.1592 10.728 34.2232 12.096 34.2232 14.28C34.2232 16.2 35.1592 17.568 36.9112 17.568C38.6392 17.568 39.5752 16.2 39.5752 14.28C39.5752 12.096 38.6392 10.728 36.9112 10.728ZM45.7593 14.28V8.136H48.3513V14.28C48.3513 16.56 48.8073 17.568 50.5593 17.568C52.2873 17.568 52.7433 16.56 52.7433 14.28V8.136H55.3593V14.28C55.3593 18.312 53.6313 20.16 50.5593 20.16C47.4633 20.16 45.7593 18.312 45.7593 14.28ZM65.598 8.136V10.728H62.934V14.568C62.934 16.44 63.126 17.328 64.542 17.328H65.598V19.92H64.542C61.014 19.92 60.342 17.64 60.342 14.952V10.728H58.95V8.136H60.342V3.312H62.934V8.136H65.598Z" fill="#756293"/>
</svg>
