<svg width="25" height="25" viewBox="0 0 25 25" fill="none" xmlns="http://www.w3.org/2000/svg">
<path d="M11.5459 0C17.9219 0.00026213 23.0907 5.15499 23.0908 11.5137C23.0908 14.485 21.9614 17.1929 20.1084 19.2354L24.04 23.1562C24.4311 23.5462 24.431 24.1784 24.04 24.5684C23.649 24.9584 23.0151 24.9584 22.624 24.5684L18.6387 20.5938C16.6811 22.1168 14.2211 23.0272 11.5459 23.0273C5.16961 23.0273 0 17.8726 0 11.5137C0.000107527 5.15483 5.16968 0 11.5459 0ZM11.5195 3C6.81734 3 3.00488 6.80558 3.00488 11.5C3.00488 16.1944 6.81734 20 11.5195 20C16.2216 19.9998 20.0332 16.1943 20.0332 11.5C20.0332 6.8057 16.2216 3.0002 11.5195 3Z" fill="#372F44"/>
</svg>
